<svg width="30" height="30" viewBox="0 0 30 30" fill="none" xmlns="http://www.w3.org/2000/svg">
<g clip-path="url(#clip0_7_599)">
<path d="M15.0003 0C6.71553 0 0 6.71553 0 15.0003C0 23.2851 6.71553 30.0006 15.0003 30.0006C23.2851 30.0006 30.0006 23.2851 30.0006 15.0003C29.9904 6.72001 23.2806 0.00958814 15.0003 0Z" fill="#3FD283"/>
<path d="M23.7153 11.6797L14.4641 20.9309C13.7417 21.6532 12.5701 21.6532 11.8478 20.9309L6.29688 15.38C5.56179 14.6699 5.54133 13.4989 6.25149 12.7638C6.96165 12.0287 8.13268 12.0082 8.86777 12.7184C8.88312 12.7331 8.89846 12.7484 8.91316 12.7638L13.1556 17.0062L21.0984 9.06338C21.8335 8.35322 23.0045 8.37368 23.7147 9.10877C24.4069 9.82596 24.4069 10.9625 23.7147 11.6797H23.7153Z" fill="white"/>
</g>
<defs>
<clipPath id="clip0_7_599">
<rect width="30" height="30" fill="white"/>
</clipPath>
</defs>
</svg>
