<svg width="42" height="42" viewBox="0 0 42 42" fill="none" xmlns="http://www.w3.org/2000/svg">
<rect width="42" height="42" rx="21" fill="#D1325D"/>
<path d="M20.7676 27.216C20.1916 27.216 19.6476 27.104 19.1356 26.88C18.6236 26.656 18.1782 26.3387 17.7996 25.928C17.4262 25.5173 17.1569 25.032 16.9916 24.472L18.8556 23.968C18.9889 24.4267 19.2316 24.7813 19.5836 25.032C19.9409 25.2773 20.3329 25.3973 20.7596 25.392C21.1382 25.392 21.4769 25.304 21.7756 25.128C22.0742 24.952 22.3089 24.7147 22.4796 24.416C22.6502 24.112 22.7356 23.7733 22.7356 23.4C22.7356 22.8293 22.5516 22.352 22.1836 21.968C21.8156 21.584 21.3409 21.392 20.7596 21.392C20.5836 21.392 20.4102 21.416 20.2396 21.464C20.0742 21.512 19.9142 21.5787 19.7596 21.664L18.8796 20.144L22.7516 16.832L22.9196 17.296H17.4396V15.48H24.5036V17.304L21.3916 20.296L21.3756 19.728C22.0742 19.776 22.6689 19.9707 23.1596 20.312C23.6556 20.6533 24.0342 21.0933 24.2956 21.632C24.5622 22.1707 24.6956 22.76 24.6956 23.4C24.6956 24.1253 24.5169 24.776 24.1596 25.352C23.8076 25.928 23.3329 26.384 22.7356 26.72C22.1436 27.0507 21.4876 27.216 20.7676 27.216Z" fill="white"/>
</svg>
