<svg width="42" height="42" viewBox="0 0 42 42" fill="none" xmlns="http://www.w3.org/2000/svg">
<rect width="42" height="42" rx="21" fill="#D1325D"/>
<path d="M17.0344 26.984V25.304L21.9624 20.912C22.3464 20.5707 22.613 20.248 22.7624 19.944C22.9117 19.64 22.9864 19.3467 22.9864 19.064C22.9864 18.68 22.9037 18.3387 22.7384 18.04C22.573 17.736 22.3437 17.496 22.0504 17.32C21.7624 17.144 21.429 17.056 21.0504 17.056C20.6504 17.056 20.2957 17.1493 19.9864 17.336C19.6824 17.5173 19.445 17.76 19.2744 18.064C19.1037 18.368 19.0237 18.696 19.0344 19.048H17.0504C17.0504 18.28 17.221 17.6107 17.5624 17.04C17.909 16.4693 18.3837 16.0267 18.9864 15.712C19.5944 15.3973 20.2957 15.24 21.0904 15.24C21.8264 15.24 22.4877 15.4053 23.0744 15.736C23.661 16.0613 24.1224 16.5147 24.4584 17.096C24.7944 17.672 24.9624 18.336 24.9624 19.088C24.9624 19.6373 24.8877 20.0987 24.7384 20.472C24.589 20.8453 24.365 21.1893 24.0664 21.504C23.773 21.8187 23.4077 22.168 22.9704 22.552L19.4744 25.648L19.2984 25.168H24.9624V26.984H17.0344Z" fill="white"/>
</svg>
